<svg xmlns="http://www.w3.org/2000/svg" width="12.429" height="16.851" viewBox="0 0 12.429 16.851">
  <g id="turk_lirasi_324752" transform="translate(-232.14 -334.438)">
    <path id="Path_3477" data-name="Path 3477" d="M235.291,334.438h1.693v4.353c1.709-.618,3.433-1.267,5.154-1.891v1.4c-1.723.617-3.433,1.246-5.154,1.864v.721c1.721-.623,3.445-1.273,5.154-1.891v1.389c-1.708.635-3.436,1.25-5.154,1.875v7.216a6.67,6.67,0,0,0,5.3-4.033,6.645,6.645,0,0,0,.523-2.59h1.757v.267a8.476,8.476,0,0,1-.876,3.5,8.593,8.593,0,0,1-1.885,2.489,8.343,8.343,0,0,1-6.516,2.142v-8.37c-1.057.372-2.1.76-3.151,1.138v-1.346c1.054-.385,2.111-.766,3.151-1.164v-.716c-1.048.358-2.1.76-3.151,1.132V340.58c1.047-.393,2.113-.768,3.151-1.17Z" fill="#393e43" fill-rule="evenodd"/>
  </g>
</svg>
