<svg xmlns="http://www.w3.org/2000/svg" width="168.506" height="23.563" viewBox="0 0 168.506 23.563">
  <path id="turna_com_logo" data-name="turna_com logo" d="M91.964,6.189c4.326,0,7.232,2.653,7.232,6.6v10.47H94.665L94.6,21.519a6.146,6.146,0,0,1-4.641,2.044c-3.537,0-5.914-2.137-5.914-5.315,0-3.268,2.894-5.464,7.2-5.464a19.017,19.017,0,0,1,3.257.3c-.03-1.953-1.335-3.068-3.587-3.068a5.405,5.405,0,0,0-3.582,1.218l-.251.206-2.135-2.9.227-.186A10.215,10.215,0,0,1,91.964,6.189Zm39.81,0c5.349,0,8.942,3.486,8.942,8.671,0,5.206-3.593,8.7-8.942,8.7-5.366,0-8.972-3.5-8.972-8.7C122.8,9.674,126.408,6.189,131.774,6.189ZM30.817,1.752V6.489h4.766v3.943H30.817v6.887a1.894,1.894,0,0,0,1.909,2.119,6.762,6.762,0,0,0,2.669-.515l.427-.179v3.967l-.19.078a11.149,11.149,0,0,1-4.225.773,5.061,5.061,0,0,1-5.285-5.4V10.433H23.455V6.489h2.668V1.752Zm10.7,4.737V16.3a3.17,3.17,0,0,0,6.339,0V6.489H52.55V23.263H48.016l-.045-1.506a6.556,6.556,0,0,1-4.692,1.805c-3.86,0-6.453-2.666-6.453-6.634V6.489Zm62.436,11.121a2.976,2.976,0,1,1-2.975,2.977A2.979,2.979,0,0,1,103.955,17.611Zm12.83-11.422a9.231,9.231,0,0,1,5.736,1.924l.251.2-2.713,3.241-.237-.2a4.33,4.33,0,0,0-2.977-1.066c-2.524,0-4.219,1.84-4.219,4.579,0,2.78,1.668,4.577,4.248,4.577a4.446,4.446,0,0,0,3.433-1.341l.235-.25,2.717,3.175-.2.2a8.744,8.744,0,0,1-6.363,2.34c-5.331,0-8.911-3.5-8.911-8.7C107.784,9.674,111.4,6.188,116.784,6.188Zm-51.05,0-.315,4.363h-.285c-3.153,0-5.269,1.5-5.269,3.739v8.972H55.172V6.489h4.536l.046,1.7a7.907,7.907,0,0,1,5.649-2Zm10.34,0c4.039,0,6.755,2.653,6.755,6.6v10.47H78.136V13.452c0-1.925-1.362-3.169-3.47-3.169S71.2,11.527,71.2,13.452v9.811H66.5V6.489h4.534l.046,1.578A7.038,7.038,0,0,1,76.074,6.189Zm85.558,0c4.111,0,6.874,2.653,6.874,6.6v10.47h-4.694V13.452a3.008,3.008,0,1,0-6.008,0v9.811H153.11V13.452a3.008,3.008,0,1,0-6.008,0v9.811h-4.7V6.489h4.536l.045,1.445a6.353,6.353,0,0,1,4.544-1.744,6.052,6.052,0,0,1,4.894,2.229A6.623,6.623,0,0,1,161.632,6.189ZM7.82,14.526a10.8,10.8,0,0,0,3.264,1.141c2.669.556,5.337,1.122,8.011,1.657a10.693,10.693,0,0,0,1.964,2.762,1.084,1.084,0,0,0,.331.2,2.828,2.828,0,0,1-.4.008c-2.352-.341-4.7-.695-7.057-1.033a12.493,12.493,0,0,1-1.857-.349,5.254,5.254,0,0,1-2.964-2.258C8.673,15.947,8.262,15.226,7.82,14.526Zm83.934,1.662c-1.725,0-2.839.773-2.839,1.97s.805,1.88,2.209,1.88a3.485,3.485,0,0,0,3.37-3.577A15.712,15.712,0,0,0,91.754,16.188Zm40.02-5.906c-2.508,0-4.129,1.8-4.129,4.577s1.621,4.579,4.129,4.579c2.49,0,4.1-1.8,4.1-4.579S134.264,10.283,131.774,10.283ZM0,0Q8.592,4.061,17.185,8.112a6.813,6.813,0,0,1,3.74,3.963,6.924,6.924,0,0,0,1.681,3.179,3.969,3.969,0,0,0,.916.651l.125.065V18.5c-.05-.011-.1-.024-.15-.037A6.4,6.4,0,0,1,20.42,16.7a6.9,6.9,0,0,1-1.554-2.971,5.33,5.33,0,0,0-2.957-3.1,13.381,13.381,0,0,0-2.252-.732C11.7,9.35,9.737,8.818,7.782,8.274A10.935,10.935,0,0,1,1.815,3.428C1.181,2.3.584,1.154,0,0ZM4.128,7.792a10.966,10.966,0,0,0,3.448,1.75c2.34.645,4.682,1.282,7.019,1.933a4.975,4.975,0,0,1,2.815,2.072,4.769,4.769,0,0,1,.4,1.064,12.223,12.223,0,0,0,.581,1.422c-2.615-.512-5.215-1.1-7.828-1.632a8.941,8.941,0,0,1-3.737-1.993,4.42,4.42,0,0,1-.891-1.18C5.334,10.082,4.711,8.948,4.128,7.792Z" fill="#ff3200" fill-rule="evenodd"/>
</svg>
